# xmcd
#
# Track frame offsets: 
#        150
#        18001
#        39036
#        57110
#        80004
#        99241
#        109722
#        127789
#        160687
#        178259
#        195915
#
# Disc length: 2878 seconds
#
# Revision: 0
# Processed by: cddbd v1.5.2PL0 Copyright (c) Steve Scherf et al.
# Submitted via: ExactAudioCopy v1.3
#
DISCID=710b3c0b
DTITLE=Nakia - Blues Grifter
DYEAR=2018
DGENRE=Bkues
TTITLE0=Yonder Wall
TTITLE1=Somebody's Sleeping In My Bed
TTITLE2=Gimme Some Of Yours (I'll Give 
TTITLE3=Double Trouble
TTITLE4=Woman Don't Lie
TTITLE5=Ain't That Lovin' You Baby
TTITLE6=Go On To School
TTITLE7=I've Got To Use My Imagination
TTITLE8=Hoodoo Party
TTITLE9=300 Pounds Of Joy
TTITLE10=Whipping Post
EXTD=
EXTT0=
EXTT1=
EXTT2=
EXTT3=
EXTT4=
EXTT5=
EXTT6=
EXTT7=
EXTT8=
EXTT9=
EXTT10=
PLAYORDER=
